<?xml version="1.0" encoding="utf-8"?>
<!-- Generator: Adobe Illustrator 27.5.0, SVG Export Plug-In . SVG Version: 6.00 Build 0)  -->
<svg version="1.1" id="Layer_1" xmlns="http://www.w3.org/2000/svg" xmlns:xlink="http://www.w3.org/1999/xlink" x="0px" y="0px"
	 viewBox="0 0 922.3 913.5" style="enable-background:new 0 0 922.3 913.5;" xml:space="preserve">
<style type="text/css">
	.st0{fill:#A5ABB6;}
	.st1{fill:#FFFFFF;stroke:#000000;stroke-width:0.25;stroke-miterlimit:10;enable-background:new    ;}
	.st2{font-family:'ArialMT';}
	.st3{font-size:8px;}
	.st4{fill:#A5ABB6;stroke:#9AA1AC;stroke-width:2;}
	.st5{fill:#FFFFFF;enable-background:new    ;}
	.st6{font-size:10px;}
	.st7{fill:#DA7194;stroke:#CC3C6C;stroke-width:2;}
	.st8{fill:#ECB5C9;stroke:#DA7298;stroke-width:2;}
	.st9{fill:#2A2C34;enable-background:new    ;}
	.st10{fill:#8DCC93;stroke:#5DB665;stroke-width:2;}
	.st11{fill:#D9C8AE;stroke:#C0A378;stroke-width:2;}
	.st12{fill:#F79767;stroke:#F36924;stroke-width:2;}
	.st13{fill:#569480;stroke:#447666;stroke-width:2;}
	.st14{fill:#C990C0;stroke:#B261A5;stroke-width:2;}
	.st15{fill:#57C7E3;stroke:#23B3D7;stroke-width:2;}
	.st16{fill:#604A0E;stroke:#423204;stroke-width:2;}
</style>
<g>
	<g transform="translate(-145.8956704774865 -196.98653613482387) rotate(363.49568852719017)">
		<path class="st0" d="M497.7,466.1H541v-1h-43.3V466.1z M580.3,466.1l43.3,0v3l7-3.5l-7-3.5v3l-43.3,0V466.1z"/>
		<text pointer-events="none" transform="matrix(1 0 0 1 543.9341 468.5823)" class="st1 st2 st3">CHECKS</text>
	</g>
	<g transform="translate(-236.18981122986503 280.72600723471606) rotate(202.04131980338246)">
		<path class="st0" d="M-571.2-290.6h21.4v-1h-21.4V-290.6z M-494.2-290.6h21.4v3l7-3.5l-7-3.5v3h-21.4V-290.6z"/>
		<text pointer-events="none" transform="matrix(-1 0 0 -1 -497.156 -294.0705)" class="st1 st2 st3">LOCATED_IN</text>
	</g>
	<g transform="translate(-231.7355099304583 181.49538668001577) rotate(524.6069164680097)">
		<path class="st0" d="M-271.5-593l20.7,0v-1l-20.7,0V-593z M-195.1-593h20.7v3l7-3.5l-7-3.5v3h-20.7L-195.1-593z"/>
		<text pointer-events="none" transform="matrix(-1 0 0 -1 -198.1308 -596.525)" class="st1 st2 st3">LOCATED_IN</text>
	</g>
	<g transform="translate(36.64886663411708 -185.835421639583) rotate(482.262065562961)">
		<path class="st0" d="M204.7-645.3l0.3,1c34.8-9.3,70.5-15,106.6-16.8l-0.1-1C275.4-660.3,239.6-654.7,204.7-645.3z M357.9-662.4v1
			c36,1.4,71.8,6.7,106.7,15.6l-0.7,2.9l7.6-1.7l-5.9-5.1l-0.7,2.9C429.9-655.8,394-661,357.9-662.4"/>
		<text pointer-events="none" transform="matrix(-1 0 0 -1 354.9151 -665.3265)" class="st1 st2 st3">RECEIVES</text>
	</g>
	<g transform="translate(36.64886663411708 -185.835421639583) rotate(288.06125798018)">
		<path class="st0" d="M-307.7,567.6l0.3,1c7.9-2.1,16-3.7,24.1-4.8l-0.1-1C-291.7,563.9-299.8,565.5-307.7,567.6z M-237.1,562.2
			l-0.1,1c8.1,0.9,16.2,2.3,24.2,4.3l-0.7,2.9l7.6-1.7l-6-5.1l-0.7,2.9C-220.8,564.6-228.9,563.1-237.1,562.2"/>
		<text pointer-events="none" transform="matrix(1 0 0 1 -280.5332 564.5822)" class="st1 st2 st3">RECEIVES</text>
	</g>
	<g transform="translate(-47.33504051549737 -16.12603045526357) rotate(327.4851419974767)">
		<path class="st0" d="M133.6,655h5.1v-1h-5.1V655z M252.2,655h5.1v3l7-3.5l-7-3.5v3h-5.1L252.2,655L252.2,655z"/>
		<text pointer-events="none" transform="matrix(1 0 0 1 141.7197 657.5071)" class="st1 st2 st3">GLOSSARY_ELEMENT_FOR</text>
	</g>
	<g transform="translate(196.00308632554024 108.1638011373829) rotate(307.3661577671471)">
		<path class="st0" d="M-105.8,670l0.7-0.7c20.8,20.8,47.6,34.4,76.6,39l-0.2,1C-57.9,704.6-84.9,690.9-105.8,670z M9.1,710L9,709
			c29.2-3.4,56.5-15.9,78.1-35.8l-2-2.2l7.5-2.2l-2.8,7.3l-2-2.2C66.1,694,38.5,706.6,9.1,710"/>
		<text pointer-events="none" transform="matrix(1 0 0 1 -25.7277 713.3999)" class="st1 st2 st3">CREATE</text>
	</g>
	<g transform="translate(380.32139678490813 89.21998241979631) rotate(255.83405552207648)">
		<path class="st0" d="M-565.6,322.1l0.5-0.9c13,7.5,27.2,12.6,41.9,15.1l-0.2,1C-538.3,334.8-552.6,329.6-565.6,322.1z M-485.5,338
			l-0.1-1c14.8-1.9,29.2-6.5,42.5-13.5l-1.4-2.7l7.8-0.2l-4.6,6.4l-1.4-2.7C-456.1,331.5-470.6,336.1-485.5,338"/>
		<text pointer-events="none" transform="matrix(-1 0 0 -1 -488.5477 335.5904)" class="st1 st2 st3">CREATE</text>
	</g>
	<g transform="translate(166.2550678167328 308.698474720788) rotate(180.70520228933418)">
		<path class="st0" d="M-424.4-487.5l37.8,0v-1l-37.8,0V-487.5z M-325.9-487.5h37.8v3l7-3.5l-7-3.5v3l-37.8,0V-487.5z"/>
		<text pointer-events="none" transform="matrix(-1 0 0 -1 -328.9364 -491.0414)" class="st1 st2 st3">ADMINISTERS</text>
	</g>
	<g transform="translate(261.2215824240121 -206.8796604275226) rotate(234.14837984140388)">
		<path class="st0" d="M-634.7,70.8h1.5v-1h-1.5V70.8z M-557.5,70.8h1.5v3l7-3.5l-7-3.5v3h-1.5V70.8z"/>
		<text pointer-events="none" transform="matrix(-1 0 0 -1 -560.5287 67.3286)" class="st1 st2 st3">LOGICAL_ATTRI…</text>
	</g>
	<g transform="translate(-205.03568446751086 -72.72520657315253) rotate(379.74319597622826)">
		<path class="st0" d="M609,315.2l26.5,0v-1l-26.5,0V315.2z M693.1,315.2h26.5v3l7-3.5l-7-3.5v3h-26.5V315.2z"/>
		<text pointer-events="none" transform="matrix(1 0 0 1 638.5413 317.7435)" class="st1 st2 st3">DEFINED_ON</text>
	</g>
	<g transform="translate(36.64886663411708 -185.835421639583) rotate(323.88041352517155)">
		<path class="st0" d="M74.2,684.1l10.4,38.6c2.6,9.6-3.1,19.4-12.7,21.9c-9.6,2.6-19.4-3.1-21.9-12.7c-0.8-3-0.8-6.2,0-9.3
			l8.5-31.9l3.9,1l-1.6-7.7l-5.2,5.9l3.9,1L50.9,723c-2.4,9,2.9,18.3,12,20.7s18.3-2.9,20.7-12c0.8-2.9,0.8-5.9,0-8.8l-10.4-38.6
			L74.2,684.1z"/>
		<text pointer-events="none" transform="matrix(1 0 0 1 54.4231 754.2505)" class="st1 st2 st3">FK_TO</text>
	</g>
	<g transform="translate(-47.33504051549737 -16.12603045526357) rotate(183.09141294975848)">
		<path class="st0" d="M-444.4-468.4l121.4,0v-1l-121.4,0V-468.4z M-255.2-468.4l121.4,0v3l7-3.5l-7-3.5v3l-121.4,0L-255.2-468.4
			L-255.2-468.4z"/>
		<text pointer-events="none" transform="matrix(-1 0 0 -1 -258.1686 -471.9059)" class="st1 st2 st3">RECEIVES_CDE</text>
	</g>
	<g transform="translate(-47.33504051549737 -16.12603045526357) rotate(491.03974550369674)">
		<path class="st0" d="M105.1-665.4l0.3,1c1-0.3,1.9-0.5,2.9-0.7l-0.2-1C107.1-665.9,106.1-665.7,105.1-665.4z M175.5-667.1l-0.2,1
			c1,0.2,1.9,0.4,2.9,0.7l-0.7,2.9l7.6-1.8l-6-5l-0.7,2.9C177.4-666.6,176.4-666.9,175.5-667.1"/>
		<text pointer-events="none" transform="matrix(-1 0 0 -1 172.6049 -672.9945)" class="st1 st2 st3">RECEIVES_CDE</text>
	</g>
	<g transform="translate(206.8519768346733 -464.53586257923064) rotate(459.6603737664737)">
		<path class="st0" d="M437.1-519.4h11v-1h-11V-519.4z M518.9-519.4h11v3l7-3.5l-7-3.5v3h-11V-519.4z"/>
		<text pointer-events="none" transform="matrix(-1 0 0 -1 515.8869 -522.925)" class="st1 st2 st3">HAS_ATTRIBUTE</text>
	</g>
	<g transform="translate(181.7212772770588 -316.900490289888) rotate(497.9038951093494)">
		<path class="st0" d="M26.8-663h41.9v-1H26.8L26.8-663z M123.5-663h41.9v3l7-3.5l-7-3.5v3h-41.9C123.5-664,123.5-663,123.5-663z"/>
		<text pointer-events="none" transform="matrix(-1 0 0 -1 120.4766 -666.4543)" class="st1 st2 st3">GENERATES</text>
	</g>
	<g transform="translate(226.82845159136394 229.5440860945296) rotate(204.4044343162471)">
		<path class="st0" d="M-583.7-273.2l0.3,1c0.4-0.1,0.7-0.2,1.1-0.3l-0.2-1C-582.9-273.4-583.3-273.3-583.7-273.2z M-540.3-274.2
			l-0.2,1c0.4,0.1,0.7,0.2,1.1,0.2l-0.7,2.9l7.6-1.8l-6-5l-0.7,2.9C-539.6-274-539.9-274.1-540.3-274.2"/>
		<text pointer-events="none" transform="matrix(-1 0 0 -1 -543.2435 -278.8087)" class="st1 st2 st3">REPOR…</text>
	</g>
	<g transform="translate(136.15686234809087 188.4051674109125) rotate(345.3614253369435)">
		<path class="st0" d="M329.3,590.1h18.9v-1h-18.9V590.1z M408.1,590.1H427v3l7-3.5l-7-3.5v3h-18.9V590.1z"/>
		<text pointer-events="none" transform="matrix(1 0 0 1 351.152 592.5703)" class="st1 st2 st3">REPORTS_TO</text>
	</g>
	<g transform="translate(226.82845159136394 229.5440860945296) rotate(306.3312019812078)">
		<path class="st0" d="M-110.9,642.6l0.3,1c0.4-0.1,0.7-0.2,1.1-0.3l-0.2-1C-110.2,642.4-110.5,642.5-110.9,642.6z M-67.5,641.6
			l-0.2,1c0.4,0.1,0.7,0.2,1.1,0.2l-0.7,2.9l7.6-1.8l-6-5l-0.7,2.9C-66.7,641.8-67.1,641.7-67.5,641.6"/>
		<text pointer-events="none" transform="matrix(1 0 0 1 -106.8923 643.0258)" class="st1 st2 st3">REPOR…</text>
	</g>
	<g transform="translate(204.50878322308134 9.983237303779003) rotate(470.9614105153572)">
		<path class="st0" d="M327.3-590.1h37.1v-1h-37.1V-590.1z M424.3-590.1h37.1v3l7-3.5l-7-3.5v3h-37.1V-590.1z"/>
		<text pointer-events="none" transform="matrix(-1 0 0 -1 421.26 -593.6075)" class="st1 st2 st3">REPORTS_TO</text>
	</g>
	<g transform="translate(166.2550678167328 308.698474720788) rotate(255.95260440406895)">
		<path class="st0" d="M-561.4,310.8h3.5v-1h-3.5V310.8z M-497.9,310.8h3.5v3l7-3.5l-7-3.5v3h-3.5V310.8z"/>
		<text pointer-events="none" transform="matrix(-1 0 0 -1 -500.928 307.3416)" class="st1 st2 st3">REPORTS_TO</text>
	</g>
	<g transform="translate(204.50878322308134 9.983237303779003) rotate(419.7278157519535)">
		<path class="st0" d="M674.8-133.6H697v-1h-22.2V-133.6z M756.9-133.6h22.2v3l7-3.5l-7-3.5v3h-22.2V-133.6z"/>
		<text pointer-events="none" transform="matrix(1 0 0 1 699.948 -131.1371)" class="st1 st2 st3">REPORTS_TO</text>
	</g>
	<g transform="translate(136.15686234809087 188.4051674109125) rotate(487.5573829924465)">
		<path class="st0" d="M127.9-628.3l10.4,38.6c2.6,9.6-3.1,19.4-12.7,21.9c-9.6,2.6-19.4-3.1-21.9-12.7c-0.8-3-0.8-6.2,0-9.3
			l8.5-31.9l3.9,1l-1.6-7.7l-5.2,5.9l3.9,1l-8.5,31.9c-2.4,9,2.9,18.3,12,20.7s18.3-2.9,20.7-12c0.8-2.9,0.8-5.9,0-8.8L127-628.1
			L127.9-628.3z"/>
		<text pointer-events="none" transform="matrix(-1 0 0 -1 144.2375 -564.1255)" class="st1 st2 st3">REPORTS…</text>
	</g>
	<g transform="translate(166.2550678167328 308.698474720788) rotate(306.8784354879514)">
		<path class="st0" d="M-103.7,651.4h41.2v-1h-41.2V651.4z M-2.6,651.4h41.2v3l7-3.5l-7-3.5v3H-2.6V651.4z"/>
		<text pointer-events="none" transform="matrix(1 0 0 1 -59.5374 653.856)" class="st1 st2 st3">REPORTS_TO</text>
	</g>
	<g transform="translate(285.8338313132535 149.30961035123963) rotate(486.3312019812078)">
		<path class="st0" d="M158.9-656.5l0.3,1c0.6-0.2,1.2-0.3,1.7-0.4l-0.2-1C160.1-656.9,159.5-656.7,158.9-656.5z M201.7-657.7
			l-0.2,1c0.6,0.1,1.2,0.3,1.8,0.4l-0.7,2.9l7.6-1.8l-6-5l-0.7,2.9C202.9-657.4,202.3-657.6,201.7-657.7"/>
		<text pointer-events="none" transform="matrix(-1 0 0 -1 198.7014 -662.1664)" class="st1 st2 st3">MEMBER</text>
	</g>
	<g transform="translate(285.8338313132535 149.30961035123963) rotate(327.54556687333206)">
		<path class="st0" d="M134.3,654.9h6.9v-1h-6.9V654.9z M182.3,654.9h6.9v3l7-3.5l-7-3.5v3h-6.9V654.9z"/>
		<text pointer-events="none" transform="matrix(1 0 0 1 144.2288 657.3927)" class="st1 st2 st3">MEMBER</text>
	</g>
	<g transform="translate(226.82845159136394 229.5440860945296) rotate(373.83220156074054)">
		<path class="st0" d="M555.5,397.2l10.4,38.6c2.6,9.6-3.1,19.4-12.7,21.9c-9.6,2.6-19.4-3.1-21.9-12.7c-0.8-3-0.8-6.2,0-9.3
			l8.5-31.9l3.9,1l-1.6-7.7l-5.2,5.9l3.9,1l-8.5,31.9c-2.4,9,2.9,18.3,12,20.7c9,2.4,18.3-2.9,20.7-12c0.8-2.9,0.8-5.9,0-8.8
			l-10.4-38.6H555.5z"/>
		<text pointer-events="none" transform="matrix(1 0 0 1 530.9719 467.4274)" class="st1 st2 st3">MEMBER</text>
	</g>
	<g transform="translate(226.82845159136394 229.5440860945296) rotate(317.566271834641)">
		<path class="st0" d="M18.3,656.5l0.3,1c18.2-4.9,36.9-8.1,55.7-9.5l-0.1-1C55.2,648.4,36.5,651.6,18.3,656.5z M115.3,646.6l-0.1,1
			c18.8,1.1,37.5,4,55.8,8.6l-0.7,2.9l7.6-1.7l-5.9-5.1l-0.7,2.9C152.9,650.6,134.2,647.7,115.3,646.6"/>
		<text pointer-events="none" transform="matrix(1 0 0 1 77.1401 649.588)" class="st1 st2 st3">MEMBER</text>
	</g>
	<g transform="translate(380.32139678490813 89.21998241979631) rotate(497.566271834641)">
		<path class="st0" d="M29.8-670.4l0.3,1c18.2-4.9,36.9-8.1,55.7-9.5l-0.1-1C66.8-678.5,48.1-675.3,29.8-670.4z M126.8-680.3l-0.1,1
			c18.8,1.1,37.5,4,55.8,8.6l-0.7,2.9l7.6-1.7l-5.9-5.1l-0.7,2.9C164.4-676.3,145.7-679.1,126.8-680.3"/>
		<text pointer-events="none" transform="matrix(-1 0 0 -1 123.7674 -683.2764)" class="st1 st2 st3">MEMBER</text>
	</g>
	<g transform="translate(398.5007823757164 244.85724413869994) rotate(185.09728839978186)">
		<path class="st0" d="M-460.5-451.7h37.1v-1h-37.1V-451.7z M-382.3-451.7h37.1v3l7-3.5l-7-3.5v3h-37.1V-451.7z"/>
		<text pointer-events="none" transform="matrix(-1 0 0 -1 -385.2556 -455.1901)" class="st1 st2 st3">MEMBER</text>
	</g>
	<g transform="translate(136.15686234809087 188.4051674109125) rotate(384.4044343162471)">
		<path class="st0" d="M631.7,259.3l0.3,1c0.6-0.2,1.1-0.3,1.7-0.4l-0.2-1C632.9,259,632.3,259.1,631.7,259.3z M674.4,258.1l-0.2,1
			c0.6,0.1,1.2,0.3,1.7,0.4l-0.7,2.9l7.6-1.8l-6-5l-0.7,2.9C675.6,258.4,675,258.3,674.4,258.1"/>
		<text pointer-events="none" transform="matrix(1 0 0 1 636.3608 259.672)" class="st1 st2 st3">MEMBER</text>
	</g>
	<g transform="translate(380.32139678490813 89.21998241979631) rotate(259.58587373696804)">
		<path class="st0" d="M-558.6,370.9l10.4,38.6c2.6,9.6-3.1,19.4-12.7,21.9c-9.6,2.6-19.4-3.1-21.9-12.7c-0.8-3-0.8-6.2,0-9.3
			l8.5-31.9l3.9,1l-1.6-7.7l-5.2,5.9l3.9,1l-8.5,31.9c-2.4,9,2.9,18.3,12,20.7c9,2.4,18.3-2.9,20.7-12c0.8-2.9,0.8-5.9,0-8.8
			l-10.4-38.6H-558.6z"/>
		<text pointer-events="none" transform="matrix(-1 0 0 -1 -547.9976 435.0847)" class="st1 st2 st3">MEMBER</text>
	</g>
	<g transform="translate(204.50878322308134 9.983237303779003) rotate(444.1954823559152)">
		<path class="st0" d="M560.8-390.7l61.3,0v-1l-61.3,0V-390.7z M663.3-390.7l61.3,0v3l7-3.5l-7-3.5v3l-61.3,0V-390.7z"/>
		<text pointer-events="none" transform="matrix(1 0 0 1 625.137 -388.2042)" class="st1 st2 st3">MEMBER</text>
	</g>
	<g transform="translate(204.50878322308134 9.983237303779003) rotate(384.260547940773)">
		<path class="st0" d="M632,268.3h47.4v-1H632V268.3z M720.5,268.3h47.4v3l7-3.5l-7-3.5v3h-47.4V268.3z"/>
		<text pointer-events="none" transform="matrix(1 0 0 1 682.3882 270.7652)" class="st1 st2 st3">MEMBER</text>
	</g>
	<g transform="translate(136.15686234809087 188.4051674109125) rotate(337.8918925375315)">
		<path class="st0" d="M250,624.6h82.7v-1H250V624.6z M373.9,624.6h82.7v3l7-3.5l-7-3.5v3h-82.7L373.9,624.6L373.9,624.6z"/>
		<text pointer-events="none" transform="matrix(1 0 0 1 335.7626 627.1227)" class="st1 st2 st3">MEMBER</text>
	</g>
	<g transform="translate(398.5007823757164 244.85724413869994) rotate(263.3376919518596)">
		<path class="st0" d="M-516.6,383.6h29.3v-1h-29.3V383.6z M-446.2,383.6h29.3v3l7-3.5l-7-3.5v3h-29.3V383.6z"/>
		<text pointer-events="none" transform="matrix(-1 0 0 -1 -449.2405 380.1383)" class="st1 st2 st3">MEMBER</text>
	</g>
	<g transform="translate(36.64886663411708 -185.835421639583) rotate(379.68958750627695)">
		<path class="st0" d="M607.8,322.2l0.3-1c34.8,9.3,70.5,15,106.5,17l-0.1,1C678.4,337.3,642.6,331.6,607.8,322.2z M766.2,339.6v-1
			c36-1.6,71.7-6.9,106.6-15.8l-0.7-2.9l7.6,1.7l-5.9,5.1l-0.7-2.9C838.1,332.7,802.3,338,766.2,339.6"/>
		<text pointer-events="none" transform="matrix(1 0 0 1 717.4385 342.5685)" class="st1 st2 st3">OWNED_BY</text>
	</g>
	<g transform="translate(196.00308632554024 108.1638011373829) rotate(307.3661577671471)">
		<path class="st0" d="M-99.1,658.9l0.3-1c23.1,6.2,46.9,10,70.8,11.5l-0.1,1C-52.2,669-75.9,665.1-99.1,658.9z M9,670.7v-1
			c23.9-1.1,47.7-4.6,70.9-10.4l-0.7-2.9l7.6,1.7l-5.9,5.1l-0.7-2.9C56.8,666.1,33,669.6,9,670.7"/>
		<text pointer-events="none" transform="matrix(1 0 0 1 -25.1514 673.5123)" class="st1 st2 st3">DELETE</text>
	</g>
	<g transform="translate(226.82845159136394 229.5440860945296) rotate(255.75057648039797)">
		<path class="st0" d="M-562.5,308.8h3.6v-1h-3.6V308.8z M-497.8,308.8h3.6v3l7-3.5l-7-3.5v3h-3.6V308.8z"/>
		<text pointer-events="none" transform="matrix(-1 0 0 -1 -500.8111 305.2721)" class="st1 st2 st3">CAN_ASSUME</text>
	</g>
	<g transform="translate(166.2550678167328 308.698474720788) rotate(278.4379220476357)">
		<path class="st0" d="M-398.1,511.5l42.3,0v-1l-42.3,0V511.5z M-294.7,511.5h42.3v3l7-3.5l-7-3.5l0,3h-42.3V511.5z"/>
		<text pointer-events="none" transform="matrix(1 0 0 1 -352.8297 514.0148)" class="st1 st2 st3">CAN_ASSUME</text>
	</g>
	<g transform="translate(36.64886663411708 -185.835421639583) rotate(379.68958750627695)">
		<path class="st0" d="M607.8,308.3l0.3,1c33.5-9,67.7-14.6,102.3-16.8l-0.1-1C675.6,293.7,641.3,299.4,607.8,308.3z M770.4,291.2
			l-0.1,1c34.6,1.8,68.9,7,102.5,15.6l-0.7,2.9l7.6-1.7l-5.9-5.1l-0.7,2.9C839.5,298.3,805.1,293,770.4,291.2"/>
		<text pointer-events="none" transform="matrix(1 0 0 1 713.2847 294.0109)" class="st1 st2 st3">BELONGS_TO</text>
	</g>
	<g transform="translate(36.64886663411708 -185.835421639583) rotate(358.07123954406626)">
		<path class="st0" d="M433.5,532.2l10.4,38.6c2.6,9.6-3.1,19.4-12.7,21.9c-9.6,2.5-19.4-3.1-21.9-12.7c-0.8-3-0.8-6.2,0-9.3
			l8.5-31.9l3.9,1l-1.6-7.7l-5.2,5.9l3.9,1l-8.5,31.9c-2.4,9,2.9,18.3,12,20.7c9,2.4,18.3-2.9,20.7-12c0.8-2.9,0.8-5.9,0-8.8
			l-10.4-38.6L433.5,532.2z"/>
		<text pointer-events="none" transform="matrix(1 0 0 1 403.1917 602.3898)" class="st1 st2 st3">BELONGS…</text>
	</g>
	<g transform="translate(105.01077721922815 -113.23656999165615) rotate(329.05873934321033)">
		<path class="st0" d="M151.5,651.8h29.3v-1h-29.3V651.8z M247.3,651.8h29.3v3l7-3.5l-7-3.5v3h-29.3V651.8z"/>
		<text pointer-events="none" transform="matrix(1 0 0 1 183.8799 654.2773)" class="st1 st2 st3">CONCEPT_FOR</text>
	</g>
	<g transform="translate(-112.6067985326348 -307.03777029612456) rotate(466.8297902226798)">
		<path class="st0" d="M369-566.8h6.7v-1H369V-566.8z M420.3-566.8h6.7v3l7-3.5l-7-3.5v3h-6.7V-566.8z"/>
		<text pointer-events="none" transform="matrix(-1 0 0 -1 417.275 -570.296)" class="st1 st2 st3">VIOLATES</text>
	</g>
	<g transform="translate(196.00308632554024 108.1638011373829) rotate(307.3661577671471)">
		<path class="st0" d="M-99.1,645l0.3,1c23-6.2,46.6-10,70.4-11.5l-0.1-1C-52.4,634.9-76,638.8-99.1,645z M9.4,633.2v1
			c23.8,1.1,47.5,4.6,70.6,10.4l-0.7,2.9l7.6-1.7l-5.9-5.1l-0.7,2.9C56.9,637.8,33.2,634.3,9.4,633.2"/>
		<text pointer-events="none" transform="matrix(1 0 0 1 -25.5189 636.344)" class="st1 st2 st3">UPDATE</text>
	</g>
	<g transform="translate(380.32139678490813 89.21998241979631) rotate(255.83405552207648)">
		<path class="st0" d="M-562,309.6h38.8v-1H-562V309.6z M-485.4,309.6h38.8v3l7-3.5l-7-3.5v3h-38.8V309.6z"/>
		<text pointer-events="none" transform="matrix(-1 0 0 -1 -488.4044 306.1269)" class="st1 st2 st3">UPDATE</text>
	</g>
	<g transform="translate(285.8338313132535 149.30961035123963) rotate(206.40678464672862)">
		<path class="st0" d="M-591.6-244.3l137.2,0v-1l-137.2,0V-244.3z M-413.8-244.3l137.2,0v3l7-3.5l-7-3.5v3l-137.2,0V-244.3z"/>
		<text pointer-events="none" transform="matrix(-1 0 0 -1 -416.7979 -247.8452)" class="st1 st2 st3">DEFINES</text>
	</g>
	<g transform="translate(204.50878322308134 9.983237303779003) rotate(185.91884940164744)">
		<path class="st0" d="M-466.9-444.7h58.6v-1h-58.6V-444.7z M-329.4-444.7h58.6v3l7-3.5l-7-3.5v3h-58.6V-444.7z"/>
		<text pointer-events="none" transform="matrix(-1 0 0 -1 -332.3692 -448.1819)" class="st1 st2 st3">DQ_RESPONSIBLE</text>
	</g>
	<g transform="translate(36.64886663411708 -185.835421639583) rotate(219.07815971205713)">
		<path class="st0" d="M-630.3-103.1h31.6v-1h-31.6V-103.1z M-526.6-103.1h31.6v3l7-3.5l-7-3.5v3h-31.6V-103.1z"/>
		<text pointer-events="none" transform="matrix(-1 0 0 -1 -529.6365 -106.6189)" class="st1 st2 st3">ISSUE_CREATED</text>
	</g>
	<g transform="translate(-131.54375652533656 80.60940652041148) rotate(311.03974550369674)">
		<path class="st0" d="M-57.1,651.5l0.3,1c3-0.8,6.1-1.5,9.1-2.1l-0.2-1C-51,650-54.1,650.7-57.1,651.5z M6.9,648.6l-0.2,1
			c3.1,0.5,6.2,1.2,9.2,1.9l-0.7,2.9l7.6-1.8l-6-5l-0.7,2.9C13.1,649.8,10,649.2,6.9,648.6"/>
		<text pointer-events="none" transform="matrix(1 0 0 1 -44.9993 649.9628)" class="st1 st2 st3">SENDS_CDE</text>
	</g>
	<g transform="translate(-27.05458565449174 306.319079666689) rotate(324.15335546953577)">
		<path class="st0" d="M95.4,660.2h43.4v-1H95.4V660.2z M196.3,660.2l43.4,0v3l7-3.5l-7-3.5v3l-43.4,0L196.3,660.2L196.3,660.2z"/>
		<text pointer-events="none" transform="matrix(1 0 0 1 141.7785 662.7136)" class="st1 st2 st3">HAS_OWNER</text>
	</g>
	<g transform="translate(-131.54375652533656 80.60940652041148) rotate(202.39606789430457)">
		<path class="st0" d="M-573-286.9h88.5v-1H-573V-286.9z M-412.6-286.9l88.5,0v3l7-3.5l-7-3.5v3l-88.5,0V-286.9z"/>
		<text pointer-events="none" transform="matrix(-1 0 0 -1 -415.5568 -290.3734)" class="st1 st2 st3">PROVIDES_DATA</text>
	</g>
	<g transform="translate(285.8338313132535 149.30961035123963) rotate(400.29973697243383)">
		<path class="st0" d="M682.4,90.1h4.9v-1h-4.9V90.1z M768.2,90.1h4.9v3l7-3.5l-7-3.5v3h-4.9V90.1z"/>
		<text pointer-events="none" transform="matrix(1 0 0 1 690.3235 92.625)" class="st1 st2 st3">ACCOUNTABLE_TO</text>
	</g>
	<g transform="translate(-27.05458565449174 306.319079666689) rotate(278.54651293332273)">
		<path class="st0" d="M-398.1,504.9l0.3,1c7.3-2,14.7-3.5,22.1-4.7l-0.2-1C-383.4,501.3-390.8,502.9-398.1,504.9z M-314.8,499.5
			l-0.1,1c7.5,1,14.9,2.4,22.2,4.2l-0.7,2.9l7.6-1.7l-6-5.1l-0.7,2.9C-299.9,501.9-307.3,500.5-314.8,499.5"/>
		<text pointer-events="none" transform="matrix(1 0 0 1 -372.9435 501.1251)" class="st1 st2 st3">DEPENDS_ON</text>
	</g>
	<g transform="translate(-3.1815268121034492 147.4629849172193) rotate(510.23372605254633)">
		<path class="st0" d="M-114.9-648h75.1v-1h-75.1V-648z M21.4-648h75.1v3l7-3.5l-7-3.5v3H21.4V-648z"/>
		<text pointer-events="none" transform="matrix(-1 0 0 -1 18.4063 -651.5461)" class="st1 st2 st3">DEPENDS_ON</text>
	</g>
	<g transform="translate(-126.19558424757783 240.90889587708827) rotate(322.7783868976346)">
		<path class="st0" d="M79.5,661.7h18.2v-1H79.5L79.5,661.7z M158.8,661.7H177v3l7-3.5l-7-3.5v3h-18.2V661.7z"/>
		<text pointer-events="none" transform="matrix(1 0 0 1 100.7132 664.2113)" class="st1 st2 st3">DEPENDS_ON</text>
	</g>
	<g transform="translate(-121.28271492649316 340.1165225640208) rotate(235.14931383650037)">
		<path class="st0" d="M-633.4,82.3l37.6,0v-1l-37.6,0V82.3z M-534.7,82.3l37.6,0v3l7-3.5l-7-3.5v3l-37.6,0V82.3z"/>
		<text pointer-events="none" transform="matrix(-1 0 0 -1 -537.6827 78.8418)" class="st1 st2 st3">DEPENDS_ON</text>
	</g>
	<g transform="translate(-131.54375652533656 80.60940652041148) rotate(477.606211117285)">
		<path class="st0" d="M256.9-621.1h53.9v-1h-53.9V-621.1z M371.9-621.1l53.9,0v3l7-3.5l-7-3.5v3l-53.9,0V-621.1z"/>
		<text pointer-events="none" transform="matrix(-1 0 0 -1 368.8596 -624.616)" class="st1 st2 st3">DEPENDS_ON</text>
	</g>
	<g transform="translate(-121.28271492649316 340.1165225640208) rotate(340.26826805165706)">
		<path class="st0" d="M275.7,614.8h0.8v-1h-0.8V614.8z M318.1,614.8h0.8v3l7-3.5l-7-3.5v3h-0.8V614.8z"/>
		<text pointer-events="none" transform="matrix(1 0 0 1 279.5052 617.2537)" class="st1 st2 st3">DEPEN…</text>
	</g>
	<g transform="translate(-3.1815268121034492 147.4629849172193) rotate(302.55191160936056)">
		<path class="st0" d="M-170.5,663.3l10.4,38.6c2.6,9.6-3.1,19.4-12.7,21.9c-9.6,2.6-19.4-3.1-21.9-12.7c-0.8-3-0.8-6.2,0-9.3
			l8.5-31.9l3.9,1l-1.6-7.7l-5.2,5.9l3.9,1l-8.5,31.9c-2.4,9,2.9,18.3,12,20.7c9,2.4,18.3-2.9,20.7-12c0.8-2.9,0.8-5.9,0-8.8
			l-10.4-38.6L-170.5,663.3z"/>
		<text pointer-events="none" transform="matrix(1 0 0 1 -200.7666 733.5012)" class="st1 st2 st3">DEPENDS…</text>
	</g>
	<g transform="translate(-126.19558424757783 240.90889587708827) rotate(393.4156014204418)">
		<path class="st0" d="M666.9,168.3h0.3v-1h-0.3V168.3z M728.3,168.3h0.3v3l7-3.5l-7-3.5v3h-0.3V168.3z"/>
		<text pointer-events="none" transform="matrix(1 0 0 1 670.2186 170.7728)" class="st1 st2 st3">DEPENDS_ON</text>
	</g>
	<g transform="translate(-231.7355099304583 181.49538668001577) rotate(452.570189077569)">
		<path class="st0" d="M498.2-464.6h0.4v-1h-0.4V-464.6z M540.1-464.6h0.4v3l7-3.5l-7-3.5v3h-0.4V-464.6z"/>
		<text pointer-events="none" transform="matrix(-1 0 0 -1 537.1033 -468.0786)" class="st1 st2 st3">DEPEN…</text>
	</g>
	<g transform="translate(-126.19558424757783 240.90889587708827) rotate(520.1001118910478)">
		<path class="st0" d="M-223.9-614.5h1.4v-1h-1.4V-614.5z M-165.4-614.5h1.4v3l7-3.5l-7-3.5v3h-1.4V-614.5z"/>
		<text pointer-events="none" transform="matrix(-1 0 0 -1 -168.3768 -617.9872)" class="st1 st2 st3">DEPENDS_…</text>
	</g>
	<g transform="translate(-131.54375652533656 80.60940652041148) rotate(387.51138831832213)">
		<path class="st0" d="M646.2,233.4l13.3,0v-1l-13.3,0V233.4z M720.7,233.4l13.3,0v3l7-3.5l-7-3.5v3l-13.3,0V233.4z"/>
		<text pointer-events="none" transform="matrix(1 0 0 1 662.5317 235.912)" class="st1 st2 st3">DEPENDS_ON</text>
	</g>
	<g transform="translate(-27.05458565449174 306.319079666689) rotate(186.97692153972935)">
		<path class="st0" d="M-475.1-435.5h46.3v-1h-46.3V-435.5z M-367.6-435.5l46.3,0v3l7-3.5l-7-3.5v3l-46.3,0V-435.5z"/>
		<text pointer-events="none" transform="matrix(-1 0 0 -1 -370.6499 -439.0224)" class="st1 st2 st3">DEPENDS_ON</text>
	</g>
	<g transform="translate(-3.1815268121034492 147.4629849172193) rotate(458.54651293332273)">
		<path class="st0" d="M446.2-518.8l0.3,1c7.3-2,14.7-3.5,22.1-4.7l-0.2-1C460.9-522.3,453.5-520.7,446.2-518.8z M529.5-524.1
			l-0.1,1c7.5,1,14.9,2.4,22.2,4.2l-0.7,2.9l7.6-1.7l-6-5.1l-0.7,2.9C544.5-521.7,537-523.1,529.5-524.1"/>
		<text pointer-events="none" transform="matrix(-1 0 0 -1 526.5062 -528.5042)" class="st1 st2 st3">DEPENDS_ON</text>
	</g>
	<g transform="translate(-3.1815268121034492 147.4629849172193) rotate(531.5307077762783)">
		<path class="st0" d="M-341.9-546.5l0.3-1c18.8,5,37.9,8.5,57.3,10.3l-0.1,1C-303.8-538-323-541.5-341.9-546.5z M-223.3-535.7
			l-0.1-1c19.4-1.5,38.6-4.7,57.4-9.5l-0.7-2.9l7.6,1.7l-5.9,5.1l-0.7-2.9C-184.6-540.4-203.9-537.2-223.3-535.7"/>
		<text pointer-events="none" transform="matrix(-1 0 0 -1 -226.299 -538.0781)" class="st1 st2 st3">DEPENDS_ON</text>
	</g>
	<g transform="translate(-27.05458565449174 306.319079666689) rotate(211.3767293278986)">
		<path class="st0" d="M-611.5-197.5l0.3,1c20.2-5.4,40.8-9.1,61.6-11l-0.1-1C-570.6-206.6-591.3-202.9-611.5-197.5z M-488.6-208.9
			l-0.1,1c20.8,1.6,41.5,5,61.7,10.1l-0.7,2.9l7.6-1.7l-5.9-5.1l-0.7,2.9C-447-203.9-467.7-207.3-488.6-208.9"/>
		<text pointer-events="none" transform="matrix(-1 0 0 -1 -491.6126 -212.457)" class="st1 st2 st3">DEPENDS_ON</text>
	</g>
	<g transform="translate(-131.54375652533656 80.60940652041148) rotate(494.8021854319268)">
		<path class="st0" d="M62.7-661.9h12v-1h-12C62.7-662.9,62.7-661.9,62.7-661.9z M135.9-661.9h12v3l7-3.5l-7-3.5v3h-12V-661.9z"/>
		<text pointer-events="none" transform="matrix(-1 0 0 -1 132.8977 -665.3823)" class="st1 st2 st3">DEPENDS_ON</text>
	</g>
	<g transform="translate(-231.7355099304583 181.49538668001577) rotate(509.7045509499682)">
		<path class="st0" d="M-126.9-625.8l10.4,38.6c2.6,9.6-3.1,19.4-12.7,21.9c-9.6,2.6-19.4-3.1-21.9-12.7c-0.8-3-0.8-6.2,0-9.3
			l8.5-31.9l3.9,1l-1.6-7.7l-5.2,5.9l3.9,1l-8.5,31.9c-2.4,9,2.9,18.3,12,20.7c9,2.4,18.3-2.9,20.7-12c0.8-2.9,0.8-5.9,0-8.8
			l-10.4-38.6L-126.9-625.8z"/>
		<text pointer-events="none" transform="matrix(-1 0 0 -1 -110.5352 -561.6002)" class="st1 st2 st3">DEPENDS…</text>
	</g>
	<g transform="translate(-126.19558424757783 240.90889587708827) rotate(209.3772566163958)">
		<path class="st0" d="M-603.5-212.1h1.5v-1h-1.5V-212.1z M-540.9-212.1h1.5v3l7-3.5l-7-3.5v3h-1.5V-212.1z"/>
		<text pointer-events="none" transform="matrix(-1 0 0 -1 -543.8646 -215.5614)" class="st1 st2 st3">DEPENDS_ON</text>
	</g>
	<g transform="translate(-121.28271492649316 340.1165225640208) rotate(207.33248963367998)">
		<path class="st0" d="M-595.5-234.4l5.6,0v-1l-5.6,0V-234.4z M-528.8-234.4h5.6v3l7-3.5l-7-3.5v3h-5.6V-234.4z"/>
		<text pointer-events="none" transform="matrix(-1 0 0 -1 -531.7639 -237.8509)" class="st1 st2 st3">DEPENDS_ON</text>
	</g>
	<g transform="translate(-27.05458565449174 306.319079666689) rotate(348.23024098251676)">
		<path class="st0" d="M340.4,597.6l10.4,38.6c2.6,9.6-3.1,19.4-12.7,21.9c-9.6,2.6-19.4-3.1-21.9-12.7c-0.8-3-0.8-6.2,0-9.3
			l8.5-31.9l3.9,1l-1.6-7.7l-5.2,5.9l3.9,1l-8.5,31.9c-2.4,9,2.9,18.3,12,20.7c9,2.4,18.3-2.9,20.7-12c0.8-2.9,0.8-5.9,0-8.8
			l-10.4-38.6L340.4,597.6z"/>
		<text pointer-events="none" transform="matrix(1 0 0 1 310.0623 667.8124)" class="st1 st2 st3">DEPENDS…</text>
	</g>
	<g transform="translate(-231.7355099304583 181.49538668001577) rotate(391.3767293278986)">
		<path class="st0" d="M659.5,183.6l0.3,1c20.2-5.4,40.8-9.1,61.6-11l-0.1-1C700.4,174.4,679.8,178.1,659.5,183.6z M782.4,172.1
			l-0.1,1c20.8,1.6,41.5,5,61.7,10.1l-0.7,2.9l7.6-1.7l-5.9-5.1l-0.7,2.9C824,177.1,803.3,173.7,782.4,172.1"/>
		<text pointer-events="none" transform="matrix(1 0 0 1 724.2996 174.5507)" class="st1 st2 st3">DEPENDS_ON</text>
	</g>
	<g transform="translate(-131.54375652533656 80.60940652041148) rotate(425.15887523222165)">
		<path class="st0" d="M659.1-194.5l65.3,0v-1l-65.3,0V-194.5z M785.6-194.5l65.3,0v3l7-3.5l-7-3.5v3l-65.3,0V-194.5z"/>
		<text pointer-events="none" transform="matrix(1 0 0 1 727.4418 -192.0314)" class="st1 st2 st3">DEPENDS_ON</text>
	</g>
	<g transform="translate(-231.7355099304583 181.49538668001577) rotate(351.5307077762783)">
		<path class="st0" d="M389.9,560.4l0.3-1c18.8,5,37.9,8.5,57.3,10.3l-0.1,1C427.9,568.9,408.7,565.5,389.9,560.4z M508.5,571.2
			l-0.1-1c19.4-1.5,38.6-4.7,57.4-9.5l-0.7-2.9l7.6,1.7l-5.9,5.1l-0.7-2.9C547.1,566.5,527.9,569.7,508.5,571.2"/>
		<text pointer-events="none" transform="matrix(1 0 0 1 450.3175 574.8344)" class="st1 st2 st3">DEPENDS_ON</text>
	</g>
	<g transform="translate(-121.28271492649316 340.1165225640208) rotate(301.5092849835356)">
		<path class="st0" d="M-164,636.5h53.9v-1H-164V636.5z M-49,636.5H4.9l0,3l7-3.5l-7-3.5l0,3H-49V636.5z"/>
		<text pointer-events="none" transform="matrix(1 0 0 1 -107.1093 638.9565)" class="st1 st2 st3">DEPENDS_ON</text>
	</g>
	<g transform="translate(-126.19558424757783 240.90889587708827) rotate(480.62762002816703)">
		<path class="st0" d="M223.8-632.5l16.6,0v-1l-16.6,0V-632.5z M324.6-632.5h16.6v3l7-3.5l-7-3.5v3h-16.6L324.6-632.5z"/>
		<text pointer-events="none" transform="matrix(-1 0 0 -1 321.6165 -635.973)" class="st1 st2 st3">NETWORK_ACCESS</text>
	</g>
	<g transform="translate(-121.28271492649316 340.1165225640208) rotate(511.5206177017752)">
		<path class="st0" d="M-129.4-644.7L-129.4-644.7l0.1-1h-0.1V-644.7z M-79.8-644.7L-79.8-644.7l0.1,3l7-3.5l-7-3.5v3h-0.1V-644.7z"
			/>
		<text pointer-events="none" transform="matrix(-1 0 0 -1 -82.7876 -648.2412)" class="st1 st2 st3">NETWOR…</text>
	</g>
	<g transform="translate(-231.7355099304583 181.49538668001577) rotate(445.4450889184609)">
		<path class="st0" d="M552.2-402.3h34.5v-1h-34.5V-402.3z M670.9-402.3l34.5,0v3l7-3.5l-7-3.5v3l-34.5,0V-402.3z"/>
		<text pointer-events="none" transform="matrix(1 0 0 1 589.6464 -399.7984)" class="st1 st2 st3">NETWORK_ACCESS</text>
	</g>
	<g transform="translate(-27.05458565449174 306.319079666689) rotate(515.7552796756993)">
		<path class="st0" d="M-176.6-631.6l32.5,0v-1l-32.5,0V-631.6z M-59.9-631.6h32.5l0,3l7-3.5l-7-3.5v3h-32.5V-631.6z"/>
		<text pointer-events="none" transform="matrix(-1 0 0 -1 -62.9182 -635.0788)" class="st1 st2 st3">NETWORK_ACCESS</text>
	</g>
	<g transform="translate(-236.18981122986503 280.72600723471606) rotate(439.1444640766216)">
		<path class="st0" d="M593.2-342h0.2v-1h-0.2V-342z M648.3-342h0.2v3l7-3.5l-7-3.5v3h-0.2V-342z"/>
		<text pointer-events="none" transform="matrix(1 0 0 1 596.3995 -339.511)" class="st1 st2 st3">NETWORK…</text>
	</g>
	<g transform="translate(-145.8956704774865 -196.98653613482387) rotate(475.45129835391225)">
		<path class="st0" d="M280.1-612h11.3v-1h-11.3V-612z M349.4-612h11.3v3l7-3.5l-7-3.5v3h-11.3V-612z"/>
		<text pointer-events="none" transform="matrix(-1 0 0 -1 346.4058 -615.4564)" class="st1 st2 st3">IMPLEMENTS</text>
	</g>
	<g transform="translate(-131.54375652533656 80.60940652041148) rotate(382.5671147216993)">
		<path class="st0" d="M623.8,286.1l118.8,0v-1l-118.8,0V286.1z M836.1,286.1l118.8,0v3l7-3.5l-7-3.5v3l-118.8,0V286.1z"/>
		<text pointer-events="none" transform="matrix(1 0 0 1 745.6774 288.5878)" class="st1 st2 st3">APPLICATION_OWNER</text>
	</g>
	<g transform="translate(380.32139678490813 89.21998241979631) rotate(255.83405552207648)">
		<path class="st0" d="M-565.6,296.2l0.5,0.9c14.4-8.3,30.2-13.7,46.7-15.8l-0.1-1C-535.2,282.4-551.2,287.8-565.6,296.2z
			 M-490.3,279.7l-0.1,1c16.5,1.5,32.6,6.3,47.2,14l-1.4,2.7l7.8,0.2l-4.6-6.4l-1.4,2.7C-457.5,286-473.7,281.2-490.3,279.7"/>
		<text pointer-events="none" transform="matrix(-1 0 0 -1 -493.3622 276.6631)" class="st1 st2 st3">READ</text>
	</g>
	<g transform="translate(196.00308632554024 108.1638011373829) rotate(307.3661577671471)">
		<path class="st0" d="M-105.8,633.9l0.7,0.7c21.9-21.9,50.5-35.9,81.3-39.6l-0.1-1C-54.9,597.8-83.7,611.8-105.8,633.9z M4.3,593.4
			l-0.1,1c30.9,2.5,60.1,15.3,82.9,36.2l-2,2.2l7.5,2.2l-2.8-7.3l-2,2.2C64.8,608.7,35.5,595.9,4.3,593.4"/>
		<text pointer-events="none" transform="matrix(1 0 0 1 -20.9129 596.4557)" class="st1 st2 st3">READ</text>
	</g>
	<g transform="translate(-16.071949039706507 -330.36663156087417) rotate(429.9594893402577)">
		<path class="st0" d="M640.6-246.9l18.8,0v-1l-18.8,0V-246.9z M718.7-246.9l18.8,0v3l7-3.5l-7-3.5v3l-18.8,0V-246.9z"/>
		<text pointer-events="none" transform="matrix(1 0 0 1 662.3514 -244.4202)" class="st1 st2 st3">DOMAIN_FOR</text>
	</g>
	<g transform="translate(338.1258826555843 -77.95283010791823) rotate(506.55731028539844)">
		<path class="st0" d="M-73-655.7l150.2,0v-1l-150.2,0V-655.7z M128.8-655.7l150.2,0v3l7-3.5l-7-3.5v3l-150.2,0V-655.7z"/>
		<text pointer-events="none" transform="matrix(-1 0 0 -1 125.8398 -659.1802)" class="st1 st2 st3">STORED_IN</text>
	</g>
	<g transform="translate(-131.54375652533656 80.60940652041148) rotate(302.262065562961)">
		<path class="st0" d="M-156.6,631.4l0.3,1c36.9-9.9,74.8-15.6,113-17.1v-1C-81.7,615.8-119.7,621.5-156.6,631.4z M-9.8,614.1l0,1
			c38.2,1,76.2,6.3,113.2,15.8l-0.7,2.9l7.6-1.7l-5.9-5.1l-0.7,2.9C66.5,620.5,28.4,615.2-9.8,614.1"/>
		<text pointer-events="none" transform="matrix(1 0 0 1 -40.4196 617.4446)" class="st1 st2 st3">SENDS</text>
	</g>
	<g transform="translate(83.14561904044683 -328.41882572457445) rotate(468.06125798018)">
		<path class="st0" d="M355.8-581.5l0.3,1c10-2.7,20.2-4.5,30.5-5.6l-0.1-1C376.1-586.1,365.8-584.2,355.8-581.5z M420-587.5l-0.1,1
			c10.3,0.8,20.5,2.4,30.6,4.9l-0.7,2.9l7.6-1.7l-6-5.1l-0.7,2.9C440.6-585.1,430.4-586.7,420-587.5"/>
		<text pointer-events="none" transform="matrix(-1 0 0 -1 416.9766 -590.5334)" class="st1 st2 st3">SENDS</text>
	</g>
</g>
<g>
	<g transform="translate(380.32139678490813,89.21998241979631)">
		<circle class="st4" cx="443.4" cy="493.5" r="25"/>
		<text pointer-events="none" transform="matrix(1 0 0 1 429.4967 498.5359)" class="st5 st2 st6">Group</text>
	</g>
	<g transform="translate(206.8519768346733,-464.53586257923064)">
		<circle class="st4" cx="443.4" cy="493.5" r="25"/>
		<text pointer-events="none" transform="matrix(1 0 0 1 430.8883 498.5359)" class="st5 st2 st6">Entity</text>
	</g>
	<g transform="translate(204.50878322308134,9.983237303779003)">
		<circle class="st4" cx="443.4" cy="493.5" r="25"/>
		<text pointer-events="none" transform="matrix(1 0 0 1 421.1667 498.5358)" class="st5 st2 st6">DGBusi…</text>
	</g>
	<g transform="translate(226.82845159136394,229.5440860945296)">
		<circle class="st4" cx="443.4" cy="493.5" r="25"/>
		<text pointer-events="none" transform="matrix(1 0 0 1 432.8366 498.536)" class="st5 st2 st6">User</text>
	</g>
	<g transform="translate(-231.7355099304583,181.49538668001577)">
		<circle class="st7" cx="443.4" cy="493.5" r="25"/>
	</g>
	<g transform="translate(181.7212772770588,-316.900490289888)">
		<circle class="st4" cx="443.4" cy="493.5" r="25"/>
		<text pointer-events="none" transform="matrix(1 0 0 1 424.7726 498.536)" class="st5 st2 st6">Attribute</text>
	</g>
	<g transform="translate(285.8338313132535,149.30961035123963)">
		<circle class="st4" cx="443.4" cy="493.5" r="25"/>
		<text pointer-events="none" transform="matrix(1 0 0 1 421.1667 498.5359)" class="st5 st2 st6">DGBusi…</text>
	</g>
	<g transform="translate(261.2215824240121,-206.8796604275226)">
		<circle class="st4" cx="443.4" cy="493.5" r="25"/>
		<text pointer-events="none" transform="matrix(1 0 0 1 427.5484 498.5359)" class="st5 st2 st6">Logical</text>
	</g>
	<g transform="translate(83.14561904044683,-328.41882572457445)">
		<circle class="st4" cx="443.4" cy="493.5" r="25"/>
		<text pointer-events="none" transform="matrix(1 0 0 1 425.3317 498.5358)" class="st5 st2 st6">Process</text>
	</g>
	<g transform="translate(-205.03568446751086,-72.72520657315253)">
		<circle class="st4" cx="443.4" cy="493.5" r="25"/>
		<text pointer-events="none" transform="matrix(1 0 0 1 420.6051 498.536)" class="st5 st2 st6">Busines…</text>
	</g>
	<g transform="translate(-3.1815268121034492,147.4629849172193)">
		<circle class="st8" cx="443.4" cy="493.5" r="25"/>
		<text pointer-events="none" transform="matrix(1 0 0 1 420.0509 498.5358)" class="st9 st2 st6">DBSche…</text>
	</g>
	<g transform="translate(36.64886663411708,-185.835421639583)">
		<circle class="st4" cx="443.4" cy="493.5" r="25"/>
		<text pointer-events="none" transform="matrix(1 0 0 1 426.1641 498.5359)" class="st5 st2 st6">Column</text>
	</g>
	<g transform="translate(-121.28271492649316,340.1165225640208)">
		<circle class="st10" cx="443.4" cy="493.5" r="25"/>
	</g>
	<g transform="translate(-215.04649575675754,390.9824229655683)">
		<circle class="st11" cx="443.4" cy="493.5" r="25"/>
		<text pointer-events="none" transform="matrix(1 0 0 1 420.0558 498.5359)" class="st9 st2 st6">Network…</text>
	</g>
	<g transform="translate(136.15686234809087,188.4051674109125)">
		<circle class="st4" cx="443.4" cy="493.5" r="25"/>
		<text pointer-events="none" transform="matrix(1 0 0 1 421.1691 498.536)" class="st5 st2 st6">DGSyst…</text>
	</g>
	<g transform="translate(-112.6067985326348,-307.03777029612456)">
		<circle class="st4" cx="443.4" cy="493.5" r="25"/>
	</g>
	<g transform="translate(105.01077721922815,-113.23656999165615)">
		<circle class="st4" cx="443.4" cy="493.5" r="25"/>
		<text pointer-events="none" transform="matrix(1 0 0 1 424.7702 498.5359)" class="st5 st2 st6">Concept</text>
	</g>
	<g transform="translate(338.1258826555843,-77.95283010791823)">
		<circle class="st4" cx="443.4" cy="493.5" r="25"/>
		<text pointer-events="none" transform="matrix(1 0 0 1 431.44 498.5358)" class="st5 st2 st6">Table</text>
	</g>
	<g transform="translate(-16.071949039706507,-330.36663156087417)">
		<circle class="st4" cx="443.4" cy="493.5" r="25"/>
		<text pointer-events="none" transform="matrix(1 0 0 1 421.4401 498.5358)" class="st5 st2 st6">DataDo…</text>
	</g>
	<g transform="translate(398.5007823757164,244.85724413869994)">
		<circle class="st4" cx="443.4" cy="493.5" r="25"/>
		<text pointer-events="none" transform="matrix(1 0 0 1 419.216 498.5358)" class="st5 st2 st6">DGSpon…</text>
	</g>
	<g transform="translate(-414.3932117740659,-35.95001765805862)">
		<circle class="st4" cx="443.4" cy="493.5" r="25"/>
		<text pointer-events="none" transform="matrix(1 0 0 1 428.3859 498.5359)" class="st5 st2 st6">Report</text>
	</g>
	<g transform="translate(196.00308632554024,108.1638011373829)">
		<circle class="st4" cx="443.4" cy="493.5" r="25"/>
		<text pointer-events="none" transform="matrix(1 0 0 1 433.11 498.5359)" class="st5 st2 st6">Role</text>
	</g>
	<g transform="translate(-380.2753198582082,222.39077615708584)">
		<circle class="st12" cx="443.4" cy="493.5" r="25"/>
		<text pointer-events="none" transform="matrix(1 0 0 1 418.6592 498.536)" class="st5 st2 st6">DataCen…</text>
	</g>
	<g transform="translate(-236.18981122986503,280.72600723471606)">
		<circle class="st13" cx="443.4" cy="493.5" r="25"/>
	</g>
	<g transform="translate(-47.33504051549737,-16.12603045526357)">
		<circle class="st4" cx="443.4" cy="493.5" r="25"/>
		<text pointer-events="none" transform="matrix(1 0 0 1 423.6666 498.5359)" class="st5 st2 st6">Glossary</text>
	</g>
	<g transform="translate(-126.19558424757783,240.90889587708827)">
		<circle class="st14" cx="443.4" cy="493.5" r="25"/>
	</g>
	<g transform="translate(-145.8956704774865,-196.98653613482387)">
		<circle class="st4" cx="443.4" cy="493.5" r="25"/>
		<text pointer-events="none" transform="matrix(1 0 0 1 418.9377 498.5359)" class="st5 st2 st6">RuleChe…</text>
	</g>
	<g transform="translate(-131.54375652533656,80.60940652041148)">
		<circle class="st15" cx="443.4" cy="493.5" r="25"/>
	</g>
	<g transform="translate(-27.05458565449174,306.319079666689)">
		<circle class="st16" cx="443.4" cy="493.5" r="25"/>
	</g>
	<g transform="translate(166.2550678167328,308.698474720788)">
		<circle class="st4" cx="443.4" cy="493.5" r="25"/>
		<text pointer-events="none" transform="matrix(1 0 0 1 425.6126 498.5359)" class="st5 st2 st6">DGDBA</text>
	</g>
</g>
</svg>
