<?xml version="1.0" encoding="utf-8"?>
<!-- Generator: Adobe Illustrator 27.5.0, SVG Export Plug-In . SVG Version: 6.00 Build 0)  -->
<svg version="1.1" id="Layer_1" xmlns="http://www.w3.org/2000/svg" xmlns:xlink="http://www.w3.org/1999/xlink" x="0px" y="0px"
	 viewBox="0 0 200.1 208.6" style="enable-background:new 0 0 200.1 208.6;" xml:space="preserve">
<style type="text/css">
	.st0{fill:#A5ABB6;}
	.st1{fill:#FFFFFF;stroke:#000000;stroke-width:0.25;stroke-miterlimit:10;enable-background:new    ;}
	.st2{font-family:'ArialMT';}
	.st3{font-size:8px;}
	.st4{fill:#57C7E3;stroke:#23B3D7;stroke-width:2;}
	.st5{fill:#2A2C34;enable-background:new    ;}
	.st6{font-size:10px;}
	.st7{fill:#D9C8AE;stroke:#C0A378;stroke-width:2;}
</style>
<g>
	<g transform="translate(-30.02920563671447 86.42529580431709) rotate(250.95568488174865)">
		<path class="st0" d="M-97.6,70l15.5,0v-1l-15.5,0V70z M-27.2,70h15.5v3l7-3.5l-7-3.5l0,3h-15.5V70z"/>
		<text pointer-events="none" transform="matrix(-1 0 0 -1 -30.1562 66.4745)" class="st1 st2 st3">SENDS_CDE</text>
	</g>
	<g transform="translate(-76.66728346511232 -48.68196088342219) rotate(353.7698983197612)">
		<path class="st0" d="M119.9,104.6h9.1v-1h-9.1V104.6z M196.8,104.6l9.1,0v3l7-3.5l-7-3.5l0,3l-9.1,0V104.6z"/>
		<text pointer-events="none" transform="matrix(1 0 0 1 132.0019 107.1111)" class="st1 st2 st3">RECEIVES_CDE</text>
	</g>
</g>
<g>
	<g transform="translate(-30.02920563671447,86.42529580431709)">
		<circle class="st4" cx="105.7" cy="93.2" r="25"/>
		<text pointer-events="none" transform="matrix(1 0 0 1 95.3866 98.1942)" class="st5 st2 st6">ERP</text>
	</g>
	<g transform="translate(65.43002715493073,-64.19420824003528)">
		<circle class="st4" cx="105.7" cy="93.2" r="25"/>
		<text pointer-events="none" transform="matrix(1 0 0 1 94.2806 98.1942)" class="st5 st2 st6">CRM</text>
	</g>
	<g transform="translate(-76.66728346511232,-48.68196088342219)">
		<circle class="st7" cx="105.7" cy="93.2" r="25"/>
		<text pointer-events="none" transform="matrix(1 0 0 1 83.9949 93.1942)" class="st5 st2 st6">Customer</text>
		<text pointer-events="none" transform="matrix(1 0 0 1 92.3299 103.1942)" class="st5 st2 st6">Name</text>
	</g>
</g>
</svg>
